<?xml version="1.0" standalone="no"?>
<!DOCTYPE svg PUBLIC "-//W3C//DTD SVG 20010904//EN"
 "http://www.w3.org/TR/2001/REC-SVG-20010904/DTD/svg10.dtd">
<svg version="1.0" xmlns="http://www.w3.org/2000/svg"
 width="1280.000000pt" height="1130.000000pt" viewBox="0 0 1280.000000 1130.000000"
 preserveAspectRatio="xMidYMid meet">
<metadata>
Created by potrace 1.15, written by Peter Selinger 2001-2017
</metadata>
<g transform="translate(0.000000,1130.000000) scale(0.100000,-0.100000)"
fill="#607d8b" stroke="none">
<path d="M7644 11256 l-89 -43 38 -19 c20 -10 37 -20 37 -23 0 -3 -23 -24 -50
-46 -28 -22 -127 -128 -221 -235 -95 -107 -178 -199 -186 -204 -9 -4 -36 -4
-64 1 -41 8 -51 7 -63 -6 -18 -20 -96 -184 -96 -201 0 -8 -13 -4 -36 9 -20 12
-37 21 -39 19 -1 -2 -22 -37 -48 -78 l-46 -75 -214 -73 c-206 -71 -225 -75
-512 -122 -164 -27 -301 -52 -305 -57 -95 -101 -306 -362 -381 -472 l-99 -144
-122 -73 -123 -74 -28 -107 c-26 -100 -28 -119 -23 -248 2 -77 -2 -223 -10
-325 -31 -414 -29 -531 11 -773 6 -35 7 -34 -384 -182 -1162 -436 -3523 -1262
-3947 -1380 l-101 -27 -25 25 c-24 24 -133 65 -144 54 -3 -3 -13 -55 -23 -116
-10 -62 -22 -115 -27 -120 -5 -4 -38 -13 -74 -19 -36 -6 -107 -19 -158 -28
l-92 -17 47 -56 c26 -31 48 -57 48 -59 1 -1 59 20 129 48 l127 50 86 -65 c47
-36 90 -65 94 -65 5 0 10 48 11 108 l3 107 550 183 c1700 566 3863 1282 3874
1282 9 0 11 -12 7 -42 -3 -24 -8 -95 -11 -158 -8 -160 -85 -492 -169 -727
l-62 -176 78 -205 c43 -112 87 -217 98 -232 11 -15 70 -73 132 -127 l113 -100
270 -98 c149 -53 293 -106 320 -116 l50 -19 -3 -162 c-3 -120 5 -268 28 -558
l31 -395 40 -100 c36 -93 67 -211 58 -218 -2 -2 -35 -23 -74 -47 -38 -23 -72
-44 -74 -46 -2 -2 26 -37 62 -79 53 -60 67 -83 71 -117 9 -70 28 -320 24 -323
-2 -2 -175 135 -385 305 l-381 309 -288 24 c-159 14 -290 24 -291 23 -4 -3
1496 -1225 2157 -1757 399 -320 858 -689 1020 -820 l296 -237 389 10 c215 6
391 11 393 13 1 1 -16 46 -39 99 -32 72 -47 95 -58 92 -9 -3 -48 -8 -87 -11
l-72 -7 -160 81 c-152 77 -185 100 -648 447 -269 201 -504 380 -522 398 -37
35 -112 152 -189 296 -53 99 -46 75 -234 795 -39 148 -99 511 -99 598 0 34 14
74 54 160 l53 114 17 279 c9 153 18 294 18 312 1 17 5 32 8 32 3 0 23 -29 44
-65 44 -75 227 -246 469 -439 81 -64 147 -119 147 -121 0 -2 9 -64 20 -138
l19 -134 117 -204 c236 -413 318 -535 606 -890 233 -288 268 -335 273 -372 3
-23 19 -179 35 -346 16 -168 33 -308 37 -311 51 -43 469 -289 1181 -694 477
-271 1220 -699 1651 -950 l784 -456 253 146 253 145 -20 52 c-11 29 -26 57
-32 63 -7 6 -130 59 -275 118 -219 90 -728 323 -1407 645 -71 34 -260 139
-418 234 l-288 172 -99 200 c-151 306 -212 408 -268 450 -26 20 -115 95 -198
167 l-152 131 -18 141 -18 141 -92 186 c-83 168 -102 218 -198 520 -73 229
-129 385 -178 497 l-73 163 -162 147 -161 147 -1 112 -1 111 -38 49 c-22 26
-77 89 -123 138 -46 50 -167 182 -268 293 l-184 204 -280 461 c-454 749 -489
814 -558 1013 -32 94 -59 173 -59 175 0 8 619 604 631 608 7 2 42 -11 79 -29
64 -31 69 -36 101 -101 l33 -69 238 0 c211 0 269 4 525 35 316 39 313 39 455
-12 79 -28 89 -25 143 41 l36 44 43 -24 43 -24 98 20 c96 20 100 22 168 82
l70 62 36 -21 c20 -11 53 -23 75 -27 32 -6 38 -5 33 8 -3 8 -9 30 -12 48 -6
33 -5 35 35 47 23 7 45 9 48 6 4 -4 6 -210 5 -458 -4 -820 15 -1979 37 -2287
11 -151 43 -583 70 -960 27 -377 52 -725 55 -775 9 -141 6 -135 70 -135 53 0
55 1 55 28 0 15 -18 286 -41 602 -43 608 -43 615 -69 2125 -6 347 -15 857 -20
1135 -5 278 -10 558 -10 622 l0 117 55 20 c31 12 85 28 121 37 88 22 102 36
119 115 16 77 7 174 -26 304 -11 44 -28 142 -38 218 -10 75 -20 140 -23 143
-3 3 -68 10 -143 16 l-137 11 -161 -160 c-89 -88 -187 -179 -219 -201 l-56
-41 -159 14 c-87 8 -163 15 -169 15 -6 0 -43 25 -82 55 -75 59 -126 85 -165
85 -13 0 -54 -16 -90 -35 -36 -19 -73 -35 -82 -35 -9 0 -46 26 -81 59 l-64 58
-57 -10 c-37 -6 -76 -22 -107 -43 -28 -18 -51 -32 -53 -31 -1 2 4 45 12 97 9
51 14 94 13 95 -2 2 -32 15 -68 30 -63 27 -128 34 -218 25 -59 -6 -67 12 -70
168 l-3 137 -55 39 c-35 26 -54 47 -54 60 0 12 -4 60 -10 108 l-9 88 -150 180
c-96 114 -151 189 -151 203 0 23 14 34 139 110 l64 39 59 -28 c51 -24 60 -26
72 -13 37 38 402 479 424 512 29 44 25 62 -33 125 -19 22 -35 42 -35 45 0 4
20 18 44 32 38 22 45 31 50 68 10 63 -9 139 -59 246 -26 53 -50 116 -56 141
-15 66 -95 200 -138 230 -211 149 -215 151 -317 175 -128 30 -309 65 -338 65
-12 0 -63 -20 -112 -44z"/>
</g>
</svg>
